<svg xmlns="http://www.w3.org/2000/svg" width="159" height="47" fill="none" viewBox="0 0 159 47"><path fill="#586FFA" d="M0.456 0.631999H13.416C14.792 0.631999 16.088 0.871999 17.304 1.352C18.552 1.8 19.64 2.44 20.568 3.272C21.528 4.072 22.28 5.032 22.824 6.152C23.368 7.272 23.64 8.488 23.64 9.8C23.64 11.56 23.192 13.064 22.296 14.312C21.432 15.528 20.328 16.44 18.984 17.048V17.336C20.712 17.944 22.104 18.936 23.16 20.312C24.248 21.688 24.792 23.352 24.792 25.304C24.792 26.776 24.504 28.104 23.928 29.288C23.352 30.472 22.568 31.496 21.576 32.36C20.584 33.192 19.432 33.848 18.12 34.328C16.84 34.776 15.464 35 13.992 35H0.456V0.631999ZM13.224 14.984C14.024 14.984 14.744 14.856 15.384 14.6C16.024 14.312 16.552 13.96 16.968 13.544C17.416 13.096 17.752 12.6 17.976 12.056C18.2 11.48 18.312 10.904 18.312 10.328C18.312 9.752 18.2 9.192 17.976 8.648C17.752 8.072 17.432 7.576 17.016 7.16C16.6 6.712 16.088 6.36 15.48 6.104C14.872 5.816 14.184 5.672 13.416 5.672H5.88V14.984H13.224ZM13.992 29.96C14.856 29.96 15.624 29.816 16.296 29.528C16.968 29.24 17.528 28.856 17.976 28.376C18.424 27.896 18.76 27.352 18.984 26.744C19.24 26.136 19.368 25.512 19.368 24.872C19.368 24.232 19.24 23.624 18.984 23.048C18.76 22.44 18.408 21.912 17.928 21.464C17.448 20.984 16.856 20.6 16.152 20.312C15.48 20.024 14.696 19.88 13.8 19.88H5.88V29.96H13.992ZM45.3998 31.832H45.1118C44.4078 32.952 43.3998 33.896 42.0878 34.664C40.8078 35.4 39.3518 35.768 37.7198 35.768C34.7438 35.768 32.5198 34.888 31.0478 33.128C29.5758 31.336 28.8398 28.968 28.8398 26.024V11.48H34.1678V25.304C34.1678 27.352 34.6318 28.792 35.5598 29.624C36.5198 30.424 37.7678 30.824 39.3038 30.824C40.1998 30.824 40.9998 30.632 41.7038 30.248C42.4398 29.864 43.0638 29.352 43.5758 28.712C44.0878 28.04 44.4718 27.288 44.7278 26.456C44.9838 25.592 45.1118 24.696 45.1118 23.768V11.48H50.4398V35H45.3998V31.832ZM66.219 46.136C64.587 46.136 63.131 45.912 61.851 45.464C60.603 45.048 59.515 44.504 58.587 43.832C57.659 43.16 56.891 42.408 56.283 41.576C55.707 40.744 55.275 39.944 54.987 39.176L60.075 37.112C60.523 38.36 61.291 39.368 62.379 40.136C63.467 40.936 64.747 41.336 66.219 41.336C68.427 41.336 70.139 40.664 71.355 39.32C72.603 37.976 73.227 36.12 73.227 33.752V31.832H72.939C72.203 32.888 71.179 33.768 69.867 34.472C68.587 35.176 67.083 35.528 65.355 35.528C63.915 35.528 62.523 35.224 61.179 34.616C59.835 34.008 58.635 33.16 57.579 32.072C56.555 30.984 55.739 29.672 55.131 28.136C54.523 26.6 54.219 24.92 54.219 23.096C54.219 21.272 54.523 19.608 55.131 18.104C55.739 16.568 56.555 15.256 57.579 14.168C58.635 13.08 59.835 12.232 61.179 11.624C62.523 11.016 63.915 10.712 65.355 10.712C67.083 10.712 68.587 11.064 69.867 11.768C71.179 12.472 72.203 13.352 72.939 14.408H73.227V11.48H78.363V33.656C78.363 35.672 78.043 37.448 77.403 38.984C76.795 40.552 75.947 41.864 74.859 42.92C73.803 43.976 72.523 44.776 71.019 45.32C69.547 45.864 67.947 46.136 66.219 46.136ZM66.411 30.584C67.275 30.584 68.123 30.424 68.955 30.104C69.787 29.784 70.507 29.304 71.115 28.664C71.755 28.024 72.267 27.24 72.651 26.312C73.035 25.384 73.227 24.312 73.227 23.096C73.227 21.912 73.035 20.856 72.651 19.928C72.267 18.968 71.755 18.184 71.115 17.576C70.507 16.936 69.787 16.456 68.955 16.136C68.123 15.784 67.275 15.608 66.411 15.608C65.515 15.608 64.651 15.784 63.819 16.136C63.019 16.456 62.299 16.936 61.659 17.576C61.019 18.216 60.507 19 60.123 19.928C59.739 20.856 59.547 21.912 59.547 23.096C59.547 24.28 59.739 25.336 60.123 26.264C60.507 27.192 61.019 27.976 61.659 28.616C62.299 29.256 63.019 29.752 63.819 30.104C64.651 30.424 65.515 30.584 66.411 30.584ZM81.6709 0.631999H85.0789L95.4949 30.2H95.6869L106.487 0.631999H109.895L97.0309 35H94.0549L81.6709 0.631999ZM114.251 5.72C113.579 5.72 113.003 5.496 112.523 5.048C112.075 4.568 111.851 4.008 111.851 3.368C111.851 2.696 112.075 2.136 112.523 1.688C113.003 1.208 113.579 0.967998 114.251 0.967998C114.891 0.967998 115.435 1.208 115.883 1.688C116.363 2.136 116.603 2.696 116.603 3.368C116.603 4.008 116.363 4.568 115.883 5.048C115.435 5.496 114.891 5.72 114.251 5.72ZM112.715 35V11.48H115.787V35H112.715ZM121.802 35V0.631999H124.874V35H121.802ZM130.568 35V0.631999H133.64V35H130.568ZM155.083 30.824H154.891C154.091 32.2 152.971 33.368 151.531 34.328C150.123 35.288 148.475 35.768 146.587 35.768C145.307 35.768 144.123 35.56 143.035 35.144C141.947 34.76 141.003 34.232 140.203 33.56C139.403 32.856 138.779 32.024 138.331 31.064C137.883 30.104 137.659 29.064 137.659 27.944C137.659 26.664 137.915 25.528 138.427 24.536C138.971 23.544 139.691 22.712 140.587 22.04C141.515 21.368 142.571 20.872 143.755 20.552C144.971 20.2 146.251 20.024 147.595 20.024C149.195 20.024 150.635 20.216 151.915 20.6C153.195 20.952 154.251 21.368 155.083 21.848V20.408C155.083 19.352 154.891 18.392 154.507 17.528C154.123 16.664 153.611 15.928 152.971 15.32C152.331 14.712 151.563 14.248 150.667 13.928C149.803 13.608 148.891 13.448 147.931 13.448C146.491 13.448 145.211 13.768 144.091 14.408C142.971 15.016 142.043 15.912 141.307 17.096L138.619 15.416C139.547 13.976 140.811 12.84 142.411 12.008C144.011 11.144 145.819 10.712 147.835 10.712C149.403 10.712 150.811 10.952 152.059 11.432C153.307 11.88 154.379 12.536 155.275 13.4C156.171 14.232 156.859 15.24 157.339 16.424C157.819 17.576 158.059 18.872 158.059 20.312V35H155.083V30.824ZM155.083 24.536C154.123 23.96 153.067 23.496 151.915 23.144C150.795 22.76 149.515 22.568 148.075 22.568C147.019 22.568 146.043 22.696 145.147 22.952C144.283 23.208 143.515 23.576 142.843 24.056C142.203 24.504 141.691 25.064 141.307 25.736C140.955 26.408 140.779 27.16 140.779 27.992C140.779 28.76 140.939 29.464 141.259 30.104C141.611 30.712 142.075 31.24 142.651 31.688C143.227 32.104 143.867 32.44 144.571 32.696C145.307 32.92 146.059 33.032 146.827 33.032C147.883 33.032 148.907 32.808 149.899 32.36C150.891 31.912 151.771 31.304 152.539 30.536C153.307 29.736 153.915 28.824 154.363 27.8C154.843 26.776 155.083 25.688 155.083 24.536Z"/></svg>